<svg xmlns="http://www.w3.org/2000/svg" width="460" height="391.366" viewBox="0 0 460 391.366">
  <g id="Group_7345" data-name="Group 7345" transform="translate(0 22)">
    <path id="Path_2973" data-name="Path 2973" d="M68.572,27.517C29.906,43.681,1.33,87.961.041,131.61-1.172,175.335,24.9,218.335,52.59,255.391c27.607,36.974,46.871,70.1,82.8,83.691,44.062,8.082,107.835,17.294,146.1-6.348,30.593-18.9,22.3-58.054,42.726-91.814,20.422-33.676,42.7-67.035,47.137-106.822,4.524-39.707-8.88-86-39.635-103.527S252.936,24.3,204.508,23.9,107.319,11.445,68.574,27.517Z" transform="translate(0 21.538)" fill="#47bbd0" opacity="0.1"/>
    <path id="Path_2980" data-name="Path 2980" d="M75.606,66.121c.716,2.488,12.157,62.642-7.506,118.525-3.218.712-2.863-8.187-2.863-8.187l3.578-76.527L67.027,71.1l8.579-4.983Z" transform="translate(158.514 71.118)" fill="#de8e68"/>
    <path id="Path_2981" data-name="Path 2981" d="M76.512,245.047h37.375s10.724-127.8,10.724-130.291c-2.145,2.137-1.787,2.848-10.724,5.34-5.363,5.694-43.26,100.373-43.26,100.373Z" transform="translate(102.359 122.499)" fill="#56cad8"/>
    <path id="Path_2982" data-name="Path 2982" d="M73.352,44.469c-16.706,4.758-3.514,55.564,2.671,59.821S111.2,96.568,113.54,91.178,97.006,37.732,73.352,44.469Z" transform="translate(124.37 47.565)" fill="#fcc486"/>
    <path id="Path_2983" data-name="Path 2983" d="M118.671,37.56C65.4,37.56,64.329,189.9,71.836,196.306s84.374,12.458,91.166,0S176.589,37.56,118.671,37.56Z" transform="translate(63.967 40.949)" fill="#fed385"/>
    <path id="Path_2984" data-name="Path 2984" d="M144.228,43.426C130.283,33.1,97.749,74.391,98.107,81.866s27.529,23.134,33.25,21.711,32.614-45.539,12.871-60.154Z" transform="translate(19.105 45.406)" fill="#fed892"/>
    <path id="Path_2985" data-name="Path 2985" d="M103.027,61.965c-13.229,21.711-16.8,50.542-16.8,55.527,0,13.525,6.792,20.286,11.082,20.286,17.163,0,73.65-43.423,77.582-46.983s-7.506-14.236-9.295-12.458-22.166,14.594-51.84,27.408c4.29-5.34,16.8-21.356,17.161-26.34s-27.887-17.438-27.887-17.438Z" transform="translate(19.19 66.73)" fill="#de8e68"/>
    <path id="Path_2986" data-name="Path 2986" d="M77.794,56.91l22.334,3.356L94.353,98.381,72.018,95.025,77.8,56.91Z" transform="translate(123.981 61.39)" fill="#333"/>
    <path id="Path_2987" data-name="Path 2987" d="M79.995,82.774c-2.665-4.6.37-11.31,6.784-15s13.772-2.947,16.437,1.649-.37,11.31-6.784,15S82.66,87.37,79.995,82.774Z" transform="translate(105.513 70.392)" fill="#de8e68"/>
    <path id="Path_2988" data-name="Path 2988" d="M87.665,55.292c0,4.627,18.59,4.985,18.59,0V27.175H87.665Z" transform="translate(85.678 29.978)" fill="#d37c59"/>
    <path id="Path_2989" data-name="Path 2989" d="M99.3,68.771c-10.169,0-18.413-14.582-18.413-32.569S89.13,3.635,99.3,3.635,117.71,18.215,117.71,36.2,109.466,68.771,99.3,68.771Z" transform="translate(88.168 5.11)" fill="#de8e68"/>
    <path id="Path_2990" data-name="Path 2990" d="M100.662,29a4.806,4.806,0,1,1,4.826-4.808A4.818,4.818,0,0,1,100.662,29Z" transform="translate(69.642 21.75)" fill="#de8e68"/>
    <path id="Path_2991" data-name="Path 2991" d="M115.612,2.848c13.942,0,25.384,9.965,40.4,9.965C166.738,12.813,177.1,0,192.122,0,211.428,0,217.5,10.323,217.5,17.44c0,5.7-3.574,12.1-4.647,12.1,0-1.779-2.145-8.184-2.858-8.9-.716,2.492-15.731,19.933-28.96,19.933v.1a4.845,4.845,0,0,0-6.823,1.524,4.819,4.819,0,0,0,6.823,6.463V59.084h-3.576c-4.647,0-6.792-1.779-13.942-1.779-12.513,0-30.032,15.306-51.484,15.306-23.237,0-32.89-17.442-32.89-37.017,0-25.985,24.669-32.746,36.466-32.746Z" transform="translate(-8.053 1.27)" fill="#20272b"/>
    <path id="Path_2992" data-name="Path 2992" d="M75.822,114.756V238.621l42.485,6.426,38-125.033c-12.554,2.217-60.1,4-80.483-5.258Z" transform="translate(59.982 122.498)" fill="#74d5de"/>
    <g id="Group_52817" data-name="Group 52817" transform="translate(251.93 -22)">
      <path id="Path_24194" data-name="Path 24194" d="M825.265,322.706H648.9a8.907,8.907,0,0,1-8.9-8.9V214.9a8.907,8.907,0,0,1,8.9-8.9H825.265a8.907,8.907,0,0,1,8.9,8.9v98.913A8.907,8.907,0,0,1,825.265,322.706ZM648.9,207.047a7.859,7.859,0,0,0-7.85,7.85v98.913a7.859,7.859,0,0,0,7.85,7.85H825.265a7.859,7.859,0,0,0,7.85-7.85V214.9a7.859,7.859,0,0,0-7.85-7.85Z" transform="translate(-640 -188.372)" fill="#20272b"/>
      <path id="Path_24195" data-name="Path 24195" d="M875.473,281.313H841.455a2.355,2.355,0,0,0,0,4.71h34.018a2.355,2.355,0,1,0,0-4.71Z" transform="translate(-734.902 -224.271)" fill="#20272b"/>
      <path id="Path_24196" data-name="Path 24196" d="M908.632,309.813H841.006a2.408,2.408,0,0,0,0,4.71h67.626a2.408,2.408,0,0,0,0-4.71Z" transform="translate(-734.902 -237.855)" fill="#20272b"/>
      <path id="Path_24197" data-name="Path 24197" d="M908.632,339H841.006a2.408,2.408,0,0,0,0,4.71h67.626a2.408,2.408,0,0,0,0-4.71Z" transform="translate(-734.902 -251.767)" fill="#20272b"/>
      <path id="Path_24198" data-name="Path 24198" d="M735.61,317.909H677a5.5,5.5,0,0,1-5.5-5.5V247a5.5,5.5,0,0,1,5.5-5.5H735.61a5.5,5.5,0,0,1,5.5,5.5v65.418A5.5,5.5,0,0,1,735.61,317.909Z" transform="translate(-655.015 -205.294)" fill="#47bbd0"/>
      <circle id="Ellipse_603" data-name="Ellipse 603" cx="19.039" cy="19.039" r="19.039" transform="translate(169.991 0)" fill="#47bbd0"/>
      <path id="Path_24199" data-name="Path 24199" d="M992.917,207.756a2.368,2.368,0,0,1-1.425-.473l-.026-.019-5.366-4.109a2.384,2.384,0,0,1,2.9-3.785l3.476,2.665,8.214-10.712a2.384,2.384,0,0,1,3.343-.441l-.051.069.052-.068a2.387,2.387,0,0,1,.441,3.343l-9.661,12.6A2.385,2.385,0,0,1,992.917,207.756Z" transform="translate(-804.525 -180.932)" fill="#fff"/>
    </g>
    <g id="Group_52825" data-name="Group 52825" transform="translate(294.41 184.261)">
      <path id="Path_2970" data-name="Path 2970" d="M131.979,44.2a20.932,20.932,0,1,0-20.955-20.932A20.943,20.943,0,0,0,131.979,44.2Z" transform="translate(-111.024 -2.333)" fill="#47bbd0" stroke="rgba(0,0,0,0)" stroke-miterlimit="10" stroke-width="1"/>
      <path id="Path_2972" data-name="Path 2972" d="M125.192,19.845h-2.244a.673.673,0,0,0-.674.673v6.725a.675.675,0,0,0,.674.673h2.244a.673.673,0,0,0,.673-.673V20.517a.673.673,0,0,0-.673-.673Zm-1.122,6.949a.675.675,0,1,1,.676-.674.675.675,0,0,1-.676.674Zm8.978-10.943c0,1.188-.728,1.855-.934,2.65h2.854a1.676,1.676,0,0,1,1.672,1.628,2.03,2.03,0,0,1-.546,1.379l0,0a2.338,2.338,0,0,1-.261,2.227,2.212,2.212,0,0,1-.459,2.094,1.49,1.49,0,0,1-.173,1.251c-.573.822-1.992.833-3.193.833h-.08a8.064,8.064,0,0,1-3.354-.888,4.387,4.387,0,0,0-1.477-.453.338.338,0,0,1-.33-.337V20.246a.335.335,0,0,1,.1-.239c1.111-1.1,1.59-2.258,2.5-3.17a3.4,3.4,0,0,0,.713-1.651c.124-.518.386-1.619.951-1.619.674,0,2.021.224,2.021,2.282Z" transform="translate(-108.506 0.181)" fill="#fff"/>
    </g>
    <g id="Group_52826" data-name="Group 52826" transform="translate(47.6 113.391)">
      <path id="Path_2954" data-name="Path 2954" d="M156.333,3.516H117.566a5.975,5.975,0,0,0-5.975,5.975V32.913a5.975,5.975,0,0,0,5.975,5.975h38.767a5.975,5.975,0,0,0,5.975-5.975V9.49a5.975,5.975,0,0,0-5.975-5.975Z" transform="translate(-111.591 -3.515)" fill="#47bbd0"/>
      <path id="Path_2955" data-name="Path 2955" d="M121.691,18.639a2.51,2.51,0,1,0-2.439-2.442,2.441,2.441,0,0,0,2.439,2.442Zm11.444,0A2.51,2.51,0,1,0,130.7,16.2,2.441,2.441,0,0,0,133.136,18.639Zm11.476,0a2.442,2.442,0,1,0-2.438-2.442A2.441,2.441,0,0,0,144.611,18.639Z" transform="translate(-107.809 1.491)" fill="#fff"/>
    </g>
  </g>
</svg>
